Coordinates
version=1
nRows=16
nColumns=33
inDegrees=yes

Units are S.I. units (second, meters, Newtons, ...)
Angles are in degrees.

endheader
time	ground_thorax_rot_x	ground_thorax_rot_y	ground_thorax_rot_z	ground_thorax_tx	ground_thorax_ty	ground_thorax_tz	clav_prot_r	clav_elev_r	scapula_abduction_r	scapula_elevation_r	scapula_upward_rot_r	scapula_winging_r	shoulder_elv_r	plane_of_elev_r	axial_rot_r	elbow_flexion_r	pro_sup_r	wrist_flex_r	wrist_dev_r	clav_prot_l	clav_elev_l	scapula_abduction_l	scapula_elevation_l	scapula_upward_rot_l	scapula_winging_l	shoulder_elv_l	plane_of_elev_l	axial_rot_l	elbow_flexion_l	pro_sup_l	wrist_flex_l	wrist_dev_l
      7.16000000	     -7.14313176	    -40.00590418	     73.64628422	     -0.41584245	    805.15228008	    -36.14636465	     23.74325370	    -45.00000000	     43.25374044	    -45.00000000	    -32.51149877	   1681.03075771	   2057.86114596	    142.76995962	   -179.99999979	   1790.85390819	     60.97780586	     23.70246616	     17.33098161	     -5.18208573	     32.90713240	    -25.93727211	    -45.00000000	    -45.00000000	   4048.53295386	  -4409.98247576	    135.19121564	   -117.49693062	    708.51689909	    403.58667908	     14.00988024	    -15.87866476
      7.17000000	     -6.58056244	    -40.14716446	     74.41027724	      1.37517356	    803.69046254	    -35.89389185	     23.91205799	    -45.00000000	     43.08125775	    -45.00000000	    -33.15213307	   1680.94852078	   2057.70817568	    142.64554679	   -179.99999979	   1790.76934150	     61.03259448	     23.57637333	     17.33523199	     -5.30871242	     33.02077263	    -25.60049753	    -45.00000000	    -45.00000000	   4048.66941040	  -4410.03361019	    135.07409433	   -117.98600709	    708.53316677	    403.72478045	     13.90060703	    -15.77810383
      7.18000000	     -5.99874351	    -40.24279166	     75.20746653	      3.06931466	    802.24719449	    -35.64894172	     24.03238889	    -45.00000000	     43.00440502	    -45.00000000	    -33.88977411	   1680.87456594	   2057.56180661	    142.63668381	   -179.99999979	   1790.78022583	     61.06781491	     23.42188959	     17.25799376	     -5.44233728	     32.91168973	    -25.42046896	    -45.00000000	    -45.00000000	   4048.63521808	  -4410.20173124	    135.27009394	   -118.37180285	    708.53207520	    403.86297542	     13.87129226	    -15.72161035
      7.19000000	     -5.50162931	    -40.33723080	     75.96731415	      4.66963626	    800.81386574	    -35.40843011	     24.13895757	    -45.00000000	     42.82915135	    -45.00000000	    -34.55057588	   1680.78973757	   2057.41551468	    142.59877655	   -179.99999979	   1790.71954701	     61.12788289	     23.19409913	     17.19163900	     -5.61491730	     32.99721223	    -25.16340896	    -45.00000000	    -45.00000000	   4048.69206492	  -4410.23883664	    135.25981826	   -118.82085457	    708.51559773	    404.00374487	     13.75563315	    -15.59557323
      7.20000000	     -4.97048236	    -40.42349636	     76.68207885	      6.18191604	    799.38604535	    -35.17071668	     24.22548645	    -45.00000000	     42.69961800	    -45.00000000	    -35.12826383	   1680.67852091	   2057.26119114	    142.49351241	   -179.99999979	   1790.65307270	     61.17566923	     22.98050035	     17.11815123	     -5.72989069	     32.91229921	    -24.82769915	    -45.00000000	    -45.00000000	   4048.57897013	  -4410.26720029	    135.38068696	   -119.26127201	    708.51220192	    404.13110807	     13.69530159	    -15.49275493
      7.21000000	     -4.49504466	    -40.49848209	     77.39434572	      7.61580738	    797.96168622	    -34.93611592	     24.33999742	    -45.00000000	     42.55659137	    -45.00000000	    -35.79596637	   1680.62331279	   2057.10205753	    142.46858477	   -179.99999979	   1790.55378517	     61.23167833	     22.78598301	     17.09095685	     -5.90638807	     33.00825936	    -24.60923323	    -45.00000000	    -45.00000000	   4048.74785335	  -4410.37948091	    135.34690491	   -119.67042105	    708.57886470	    404.23294828	     13.58116521	    -15.39977158
      7.22000000	     -3.98291308	    -40.60465445	     78.10987239	      8.98067497	    796.54329783	    -34.70687034	     24.44858021	    -45.00000000	     42.50605684	    -45.00000000	    -36.31769937	   1680.45958756	   2056.95590814	    142.42478885	   -179.99999979	   1790.52294179	     61.24214943	     22.67663986	     17.04113317	     -5.99824975	     32.91391932	    -24.40281827	    -45.00000000	    -45.00000000	   4048.74112431	  -4410.49987000	    135.53453236	   -120.13579343	    708.54415477	    404.33747738	     13.60800729	    -15.37195600
      7.23000000	     -3.57358363	    -40.67686168	     78.74642947	     10.28535361	    795.13424886	    -34.48641747	     24.54978194	    -45.00000000	     42.29599843	    -45.00000000	    -36.95776618	   1680.40421934	   2056.79072124	    142.35151129	   -179.99999979	   1790.45730740	     61.28487652	     22.36888639	     16.94960022	     -6.20790783	     33.01587097	    -24.11032359	    -45.00000000	    -45.00000000	   4048.78997739	  -4410.53205548	    135.50348567	   -120.59654954	    708.55647411	    404.43798038	     13.46511155	    -15.19757733
      7.24000000	     -3.06271661	    -40.73489359	     79.46179612	     11.53119164	    793.74392899	    -34.27891293	     24.61874454	    -45.00000000	     42.21854228	    -45.00000000	    -37.53101102	   1680.27053167	   2056.71846210	    142.29932659	   -179.99999979	   1790.34204982	     61.28569223	     22.31205188	     16.93919455	     -6.23657249	     32.89730002	    -23.80952519	    -45.00000000	    -45.00000000	   4048.74595627	  -4410.62625843	    135.64340504	   -120.97614307	    708.69524657	    404.49109271	     13.47460349	    -15.22638701
      7.25000000	     -2.68024989	    -40.80989178	     80.04427985	     12.72104083	    792.37601178	    -34.08662340	     24.81262827	    -45.00000000	     42.14500333	    -45.00000000	    -38.05755686	   1680.11113891	   2056.51512921	    142.29612159	   -179.99999979	   1790.37350197	     61.27178774	     22.12649180	     16.87871806	     -6.48350918	     33.02971290	    -23.76984666	    -45.00000000	    -45.00000000	   4049.01082579	  -4410.78967340	    135.60588458	   -121.40143261	    708.62101544	    404.59156008	     13.41957240	    -15.11403354
      7.26000000	     -2.22751526	    -40.87331300	     80.68961134	     13.85440360	    791.03506007	    -33.90986259	     24.85896008	    -45.00000000	     42.02421990	    -45.00000000	    -38.58164007	   1679.98780742	   2056.43682016	    142.26394970	   -179.99999979	   1790.37989793	     61.24305871	     22.01633634	     16.78564189	     -6.53175538	     32.92814044	    -23.50132565	    -45.00000000	    -45.00000000	   4048.93526200	  -4410.84948228	    135.79235811	   -121.81575386	    708.66982829	    404.65575162	     13.43087979	    -15.09182372
      7.27000000	     -1.89589690	    -40.91679951	     81.24235824	     14.93090444	    789.72322298	    -33.74731587	     24.97053427	    -45.00000000	     41.82655511	    -45.00000000	    -39.19490178	   1679.91288411	   2056.27724639	    142.20392573	   -179.99999979	   1790.30533713	     61.25601370	     21.76194064	     16.69779367	     -6.74810269	     33.02184858	    -23.26894472	    -45.00000000	    -45.00000000	   4048.96933202	  -4410.85428061	    135.75145272	   -122.29309491	    708.65067416	    404.73329651	     13.32505371	    -14.91960642
      7.28000000	     -1.46768722	    -40.96585213	     81.82229354	     15.94868790	    788.44482464	    -33.59694827	     25.03566951	    -45.00000000	     41.71600419	    -45.00000000	    -39.70791917	   1679.84111310	   2056.22153991	    142.14147729	   -179.99999979	   1790.18776738	     61.23666796	     21.67384803	     16.65531415	     -6.75247045	     32.94503569	    -22.92207128	    -45.00000000	    -45.00000000	   4048.91065457	  -4410.88341077	    135.87098388	   -122.70656858	    708.76126834	    404.75995662	     13.31907530	    -14.89996416
      7.29000000	     -1.18004248	    -41.00649161	     82.29175246	     16.91168295	    787.19823710	    -33.45597387	     25.15787646	    -45.00000000	     41.56302443	    -45.00000000	    -40.31593690	   1679.75469150	   2056.05145038	    142.08136500	   -179.99999979	   1790.13625484	     61.23388799	     21.40899466	     16.56343783	     -7.03266958	     33.04192137	    -22.77464837	    -45.00000000	    -45.00000000	   4049.06473524	  -4411.02128511	    135.86146824	   -123.12330338	    708.85850156	    404.78466049	     13.21595930	    -14.77152159
      7.30000000	     -0.76116518	    -41.00388937	     82.92598882	     17.82182248	    785.98517574	    -33.32241355	     25.20826603	    -45.00000000	     41.48845098	    -45.00000000	    -40.76564105	   1679.65290521	   2056.06494921	    142.09923627	   -179.99999979	   1790.04772045	     61.17014793	     21.48338099	     16.54354595	     -6.88891295	     32.92977181	    -22.49080998	    -45.00000000	    -45.00000000	   4048.97826643	  -4411.02663860	    136.01006517	   -123.56295820	    708.91693109	    404.76995351	     13.29352473	    -14.81309583
      7.31000000	     -0.57135296	    -41.05401202	     83.30195503	     18.68401207	    784.80490512	    -33.19353112	     25.36884991	    -45.00000000	     41.33241447	    -45.00000000	    -41.34794201	   1679.53688913	   2055.80452347	    142.03315474	   -179.99999979	   1790.03041470	     61.17183715	     21.06697936	     16.41389963	     -7.36807486	     33.08336317	    -22.43898644	    -45.00000000	    -45.00000000	   4049.17968190	  -4411.17123928	    135.96625325	   -124.01531195	    708.92786096	    404.76529829	     13.16412073	    -14.58893096
